<svg xmlns="http://www.w3.org/2000/svg" viewBox="0 0 277.91 204.16"><defs><style>.cls-1{fill:#fff;}.cls-1,.cls-2{fill-rule:evenodd;}.cls-2{fill:#ee7c00;}</style></defs><g id="Layer_2" data-name="Layer 2"><g id="Layer_1-2" data-name="Layer 1"><polygon class="cls-1" points="130.73 204.16 130.73 0.07 130.73 0 127.47 1.59 127.47 1.59 82.53 25.43 82.53 154.78 82.53 157.18 80.14 157.18 49.73 157.18 47.34 157.18 47.34 154.78 47.34 44.67 0 69.49 0 204.16 7.68 204.16 37.21 204.16 93.52 204.16 122.18 204.16 130.73 204.16"/><path class="cls-2" d="M147.17,157.74V204.1H277.91V164.41h0v-15.7l-.09,0L230,127.53v30.21h-82.8ZM148.31.36v20h0v61.5l47.93,24.72V72l3.46,1.72,78.11,38.87V69L148.31.36ZM277.8,112.64Z"/></g></g></svg>